{"asset":{"generator":"glTF-Transform v3.0.4","version":"2.0","extras":{"author":"Sketchfab (https://sketchfab.com/Sketchfab)","license":"CC-BY-4.0 (http://creativecommons.org/licenses/by/4.0/)","source":"https://sketchfab.com/3d-models/real-time-bones-demo-phoenix-bird-6a8d1fd20a1f46e988d9d06e028f75a0","title":"Real-time Bones Demo: Phoenix Bird"}},"accessors":[{"type":"VEC3","componentType":5126,"count":2283,"max":[78.99723815917969,327.78070068359375,38.210418701171875],"min":[-832.8082275390625,11.208389282226562,-38.21067810058594],"bufferView":0,"byteOffset":0},{"type":"VEC3","componentType":5126,"count":2283,"bufferView":0,"byteOffset":12},{"type":"VEC2","componentType":5126,"count":2283,"bufferView":0,"byteOffset":24},{"type":"VEC4","componentType":5123,"count":2283,"bufferView":0,"byteOffset":32},{"type":"VEC4","componentType":5126,"count":2283,"bufferView":0,"byteOffset":40},{"type":"VEC3","componentType":5126,"count":1202,"max":[29.807708740234375,202.9979705810547,481.8984375],"min":[-618.86474609375,40.777862548828125,-481.898681640625],"bufferView":1,"byteOffset":0},{"type":"VEC3","componentType":5126,"count":1202,"bufferView":1,"byteOffset":12},{"type":"VEC2","componentType":5126,"count":1202,"bufferView":1,"byteOffset":24},{"type":"VEC4","componentType":5123,"count":1202,"bufferView":1,"byteOffset":32},{"type":"VEC4","componentType":5126,"count":1202,"bufferView":1,"byteOffset":40},{"type":"SCALAR","componentType":5125,"count":7962,"bufferView":2,"byteOffset":0},{"type":"SCALAR","componentType":5125,"count":4230,"bufferView":2,"byteOffset":31848},{"type":"MAT4","componentType":5126,"count":89,"bufferView":3,"byteOffset":0}],"bufferViews":[{"buffer":0,"byteOffset":0,"byteLength":127848,"byteStride":56,"target":34962},{"buffer":0,"byteOffset":127848,"byteLength":67312,"byteStride":56,"target":34962},{"buffer":0,"byteOffset":195160,"byteLength":48768,"target":34963},{"buffer":0,"byteOffset":243928,"byteLength":5696}],"samplers":[{"magFilter":9729,"minFilter":9987,"wrapS":10497,"wrapT":10497}],"textures":[{"source":0,"sampler":0},{"source":1,"sampler":0},{"source":2,"sampler":0},{"source":3,"sampler":0}],"images":[{"mimeType":"image/png","uri":"baseColor_1.png"},{"mimeType":"image/png","uri":"emissive_1.png"},{"mimeType":"image/png","uri":"baseColor_2.png"},{"mimeType":"image/png","uri":"emissive_2.png"}],"buffers":[{"uri":"real-time_bones_demo_phoenix_bird.bin","byteLength":249624}],"materials":[{"name":"MatI_Ride_FengHuang_01a","alphaMode":"BLEND","doubleSided":true,"pbrMetallicRoughness":{"metallicFactor":0,"baseColorTexture":{"index":0}},"emissiveFactor":[1,1,1],"emissiveTexture":{"index":1}},{"name":"MatI_Ride_FengHuang_01b","alphaMode":"BLEND","doubleSided":true,"pbrMetallicRoughness":{"metallicFactor":0,"baseColorTexture":{"index":2}},"emissiveFactor":[1,1,1],"emissiveTexture":{"index":3}}],"meshes":[{"name":"AMesh_Ride_FengHuang_01_MatI_Ride_FengHuang_01a_0","primitives":[{"attributes":{"JOINTS_0":3,"NORMAL":1,"POSITION":0,"TEXCOORD_0":2,"TEXCOORD_1":2,"TEXCOORD_2":2,"WEIGHTS_0":4},"mode":4,"material":0,"indices":10}]},{"name":"AMesh_Ride_FengHuang_01_MatI_Ride_FengHuang_01b_0","primitives":[{"attributes":{"JOINTS_0":8,"NORMAL":6,"POSITION":5,"TEXCOORD_0":7,"TEXCOORD_1":7,"TEXCOORD_2":7,"WEIGHTS_0":9},"mode":4,"material":1,"indices":11}]}],"nodes":[{"name":"Sketchfab_model","rotation":[-0.7071067811865475,0,0,0.7071067811865476],"children":[1]},{"name":"5f59736c86d4457fa045aec4aea6b7e0.fbx","rotation":[0.7071067811865475,0,0,0.7071067811865476],"children":[2]},{"name":"Object_2","children":[3]},{"name":"RootNode","children":[4]},{"name":"Object_4","children":[5,7,8,6,97]},{"name":"_rootJoint","children":[9]},{"name":"Object_6","rotation":[-0.7071067811865475,-1.049256003035905e-18,1.0498549457767968e-18,0.7071067811865476]},{"name":"Object_7","mesh":0,"skin":0},{"name":"Object_8","mesh":1,"skin":0},{"name":"b_Root_01","translation":[-40.65416717529297,116.22088623046875,0.000005080176833871519],"rotation":[-5.960473004051892e-8,-5.69400880612303e-11,-0.002950953785330057,0.9999956488609314],"children":[10,36,79,88]},{"name":"B_Spine_02","translation":[46.09593963623047,-0.0000152587890625,3.3881317890172014e-21],"rotation":[-1.4758406940984514e-8,9.037611903295328e-8,0.2356979250907898,0.9718263745307922],"children":[11,27,30,33]},{"name":"b_Neck_0_03","translation":[43.58932113647461,-0.00000762939453125,1.0844814823940396e-7],"rotation":[3.576547413786102e-8,1.85119191087324e-7,0.18258801102638245,0.9831895232200623],"children":[12]},{"name":"b_Neck_1_04","translation":[43.51678466796875,-0.000019073486328125,-0.00000622619700152427],"rotation":[-0.0013702557189390063,0.0010771630331873894,0.019486090168356895,0.9998086094856262],"children":[13]},{"name":"b_Neck_2_05","translation":[39.903900146484375,0.00000762939453125,-0.000004470348358154297],"rotation":[0.0011256021680310369,-0.00040806157630868256,-0.1556118279695511,0.9878175854682922],"children":[14]},{"name":"b_Head_06","translation":[39.8133544921875,-2.842170943040401e-14,0.000007167458534240723],"rotation":[-4.80869914554205e-7,-8.581584438616119e-7,-0.29889512062072754,0.9542859792709351],"children":[15,16,17,18,19,23]},{"name":"B_Jaw_07","translation":[16.095718383789062,-5.3043365478515625,-0.00001481175422668457],"rotation":[-0.0000017269736645175726,1.9422085983933357e-7,0.02682483196258545,0.999640166759491]},{"name":"B_Hair_1_08","translation":[14.502670288085938,-3.697235107421875,-5.665740966796875],"rotation":[-0.35190245509147644,0.8826565742492676,-0.03308429569005966,0.3098183870315552]},{"name":"B_Hair_2_09","translation":[14.02789306640625,-3.7144012451171875,5.867644786834717],"rotation":[0.31274452805519104,0.052317067980766296,0.882299542427063,-0.3478527069091797]},{"name":"B_Hair_0_010","translation":[9.3892822265625,7.8265380859375,0.000029832124710083008],"rotation":[0.0000023683305698796175,6.424847356356622e-7,0.9078862071037292,0.41921666264533997]},{"name":"B_Hair_44_011","translation":[2.8122329711914062,2.148956298828125,-7.236662864685059],"rotation":[0.09899932891130447,0.9638421535491943,-0.040308184921741486,0.24409575760364532],"children":[20]},{"name":"B_Hair_45_012","translation":[19.503231048583984,0.000030517578125,0.00000762939453125],"rotation":[0.011828193441033363,-0.020296556875109673,0.5033702850341797,0.8637515306472778],"children":[21]},{"name":"B_Hair_46_013","translation":[24.190521240234375,0.0000152587890625,-0.000034332275390625],"rotation":[0.008682969026267529,0.0733407661318779,0.043695781379938126,0.9963114261627197],"children":[22]},{"name":"B_Hair_47_014","translation":[26.16131591796875,0.0000762939453125,0.0000152587890625],"rotation":[0.09978919476270676,0.19925838708877563,-0.34586629271507263,0.9114355444908142]},{"name":"B_Hair_3_015","translation":[2.8123016357421875,2.1489105224609375,6.7633056640625],"rotation":[0.24410057067871094,-0.040308449417352676,0.9638407826423645,0.09900034219026566],"children":[24]},{"name":"B_Hair_4_016","translation":[19.503231048583984,0.0000152587890625,0.0000152587890625],"rotation":[-0.0118281040340662,-0.020296696573495865,-0.5033705830574036,0.8637513518333435],"children":[25]},{"name":"B_Hair_5_017","translation":[24.19061279296875,-2.842170943040401e-14,-0.000003814697265625],"rotation":[-0.008683281019330025,0.07334083318710327,-0.04369588568806648,0.9963114857673645],"children":[26]},{"name":"B_Hair_6_018","translation":[26.161331176757812,-0.0000762939453125,0.00000762939453125],"rotation":[-0.09978912025690079,0.1992582380771637,0.3458663523197174,0.9114355444908142]},{"name":"B_Hair_7_019","translation":[48.27846908569336,-24.275848388671875,0.000006806179953855462],"rotation":[1.0238016301400421e-7,3.311811838102585e-7,0.9660921096801758,-0.2581975758075714],"children":[28]},{"name":"B_Hair_8_020","translation":[31.63294219970703,-0.000003814697265625,-0.0000028807626222260296],"rotation":[-3.6353174692749235e-8,6.141297603790008e-8,0.15646973252296448,0.9876827597618103],"children":[29]},{"name":"B_Hair_9_021","translation":[29.36760711669922,0.0000095367431640625,-1.6447302186861634e-7],"rotation":[3.075017929177193e-8,7.132091361938819e-9,-0.18960808217525482,0.9818598628044128]},{"name":"B_Hair_10_022","translation":[33.05585861206055,-14.470809936523438,25.25292205810547],"rotation":[-0.2066989243030548,0.7354390621185303,-0.6375671029090881,0.09956476837396622],"children":[31]},{"name":"B_Hair_11_023","translation":[20.997482299804688,-0.0000019073486328125,-0.000003814697265625],"rotation":[0.007352053187787533,-0.20365683734416962,0.03531958907842636,0.9783774018287659],"children":[32]},{"name":"B_Hair_12_024","translation":[21.208480834960938,0.0002384185791015625,0.000003814697265625],"rotation":[-0.005132484715431929,0.24369031190872192,0.020418230444192886,0.9696245789527893]},{"name":"B_Hair_13_025","translation":[33.09150314331055,-14.188484191894531,-26.113649368286133],"rotation":[-0.03464244306087494,0.022503266111016273,0.9703959822654724,-0.23796036839485168],"children":[34]},{"name":"B_Hair_14_026","translation":[21.248878479003906,0.000423431396484375,-0.000003814697265625],"rotation":[-0.0024821304250508547,-0.01247649360448122,0.18649011850357056,0.9823744893074036],"children":[35]},{"name":"B_Hair_15_027","translation":[20.456344604492188,0.0003204345703125,-0.0000057220458984375],"rotation":[7.640181820534053e-8,1.5873345660111227e-7,-0.24906648695468903,0.9684863686561584]},{"name":"B_Pelvis_028","translation":[-0.3805198669433594,0.7583389282226562,3.314926289021969e-8],"rotation":[-0.001027798280119896,0.00019004603382200003,0.9889235496520996,0.14842288196086884],"children":[37,43,46,49,55,61,66,71,74,77,78]},{"name":"B_Tail_0_029","translation":[54.1351318359375,0.000030517578125,-0.000007227063179016113],"rotation":[0.7058451771736145,-0.04194384813308716,-0.0500233992934227,0.7053516507148743],"children":[38]},{"name":"B_Tail_1_030","translation":[42.62841796875,-0.000044345855712890625,-0.00002288818359375],"rotation":[-0.003103530267253518,0.29303810000419617,0.008456310257315636,0.9560583233833313],"children":[39]},{"name":"B_Tail_2_031","translation":[113.97281646728516,-0.00000286102294921875,-0.000030517578125],"rotation":[0.0011392668820917606,0.28840455412864685,-0.0016293723601847887,0.9575065970420837],"children":[40]},{"name":"B_Tail_3_032","translation":[110.42487335205078,0.000009179115295410156,0],"rotation":[-0.000366267777280882,-0.25183624029159546,-0.0008303378126583993,0.9677694439888],"children":[41]},{"name":"B_Tail_4_033","translation":[114.03167724609375,-8.940696716308594e-8,0],"rotation":[4.003275080322055e-7,-0.20294314622879028,0.000898856611456722,0.9791901111602783],"children":[42]},{"name":"B_Tail_5_034","translation":[113.78741455078125,0.000012755393981933594,-0.00003814697265625],"rotation":[-0.0002817043859977275,-0.3144768178462982,0.0006105308420956135,0.9492649435997009]},{"name":"B_Left_Thigh_035","translation":[-14.954811096191406,13.018272399902344,-24.561071395874023],"rotation":[-0.0007326805498450994,-0.0007435850566253066,0.35424378514289856,0.9351526498794556],"children":[44]},{"name":"B_Left_Calf_036","translation":[62.928253173828125,0.000030517578125,-0.0007476806640625],"rotation":[0.0013316283002495766,0.005190406925976276,0.3244812488555908,0.945876955986023],"children":[45]},{"name":"b_Left_Foot_037","translation":[62.17719650268555,-0.00096893310546875,-0.02606964111328125],"rotation":[0.992418110370636,-0.1227906122803688,0.004707540385425091,0.00257022469304502]},{"name":"B_Right_Thigh_038","translation":[-14.90018081665039,12.943580627441406,24.70009994506836],"rotation":[-0.0007344487821683288,-0.0007432895363308489,0.35579338669776917,0.9345640540122986],"children":[47]},{"name":"B_Right_Calf_00","translation":[62.74302673339844,0.0001373291015625,-0.00000762939453125],"rotation":[8.008349539068149e-8,1.5998644187220634e-7,0.3209790587425232,0.9470862746238708],"children":[48]},{"name":"b_Right_Foot_039","translation":[62.35004806518555,-0.00002288818359375,0],"rotation":[-7.433258133460185e-7,1.0249318194155421e-7,-0.12243866175413132,0.9924761056900024]},{"name":"B_Hair_22_040","translation":[78.44662475585938,-0.06337738037109375,-14.952371597290039],"rotation":[0.6616876125335693,0.20067158341407776,0.08097756654024124,0.7178739905357361],"children":[50]},{"name":"B_Hair_23_041","translation":[42.877708435058594,-0.0001220703125,-2.842170943040401e-14],"rotation":[-0.005845146253705025,-0.07395292073488235,0.04002436622977257,0.9964410662651062],"children":[51]},{"name":"B_Hair_24_042","translation":[73.81806945800781,0.000019073486328125,0],"rotation":[0.00014557212125509977,-0.0480109341442585,0.003028552047908306,0.9988422989845276],"children":[52]},{"name":"B_Hair_25_043","translation":[78.54878234863281,-0.000011444091796875,0.00002288818359375],"rotation":[-0.0015655739698559046,0.2666281461715698,0.005659084767103195,0.9637815952301025],"children":[53]},{"name":"B_Hair_26_044","translation":[76.8753662109375,0.00000762939453125,5.684341886080802e-14],"rotation":[0.0017372177680954337,0.1736384779214859,-0.009852289222180843,0.9847586750984192],"children":[54]},{"name":"B_Hair_27_045","translation":[108.359375,-0.000011444091796875,5.684341886080802e-14],"rotation":[0.00013131591549608856,0.21648763120174408,-0.0005921641713939607,0.9762852787971497]},{"name":"B_Hair_28_046","translation":[77.41603088378906,-0.48860931396484375,13.161114692687988],"rotation":[0.7097191214561462,0.07434199005365372,0.20638036727905273,0.6694619059562683],"children":[56]},{"name":"B_Hair_29_047","translation":[44.915184020996094,0.000026702880859375,0],"rotation":[0.027736548334360123,-0.07183540612459183,-0.054987337440252304,0.9955133199691772],"children":[57]},{"name":"B_Hair_30_048","translation":[72.79997253417969,0,-0.0000152587890625],"rotation":[-0.001102094305679202,-0.06951085478067398,-0.015814702957868576,0.9974552392959595],"children":[58]},{"name":"B_Hair_31_049","translation":[78.46046447753906,0.0002841949462890625,0.0000152587890625],"rotation":[-0.00015173804422374815,0.30239972472190857,0.00047826222726143897,0.9531810879707336],"children":[59]},{"name":"B_Hair_32_050","translation":[77.5574951171875,-0.00000762939453125,0],"rotation":[-0.0010454527800902724,0.17069143056869507,0.006034810096025467,0.9853054881095886],"children":[60]},{"name":"B_Hair_33_051","translation":[108.94976806640625,-0.0000858306884765625,0.00006103515625],"rotation":[-0.0001227535685757175,0.20790642499923706,0.0005775791360065341,0.9781486392021179]},{"name":"B_Hair_39_052","translation":[64.39674377441406,20.84966278076172,20.278038024902344],"rotation":[0.7593449354171753,-0.13528457283973694,0.15977175533771515,0.6160895824432373],"children":[62]},{"name":"B_Hair_40_053","translation":[80.76217651367188,0.00000762939453125,0.0000152587890625],"rotation":[0.0046958476305007935,0.17707251012325287,-0.026090772822499275,0.9838407039642334],"children":[63]},{"name":"B_Hair_41_054","translation":[63.71759033203125,0.0000324249267578125,-0.000030517578125],"rotation":[0.000954670540522784,0.2383965104818344,-0.003888993989676237,0.9711596369743347],"children":[64]},{"name":"B_Hair_42_055","translation":[65.77288818359375,0.00001621246337890625,-2.842170943040401e-14],"rotation":[0.00046479457523673773,-0.17175956070423126,0.002665742998942733,0.9851351976394653],"children":[65]},{"name":"B_Hair_43_056","translation":[84.64312744140625,0.00003147125244140625,0],"rotation":[0.0006505713681690395,-0.26889342069625854,0.0023303518537431955,0.9631668925285339]},{"name":"B_Hair_34_057","translation":[63.50767517089844,20.41741180419922,-21.61040687561035],"rotation":[0.6216261386871338,0.13305282592773438,-0.14053227007389069,0.759031355381012],"children":[67]},{"name":"B_Hair_35_058","translation":[79.96662902832031,0,0.00002288818359375],"rotation":[-0.006426773499697447,0.23106981813907623,0.027049338445067406,0.9725398421287537],"children":[68]},{"name":"B_Hair_36_059","translation":[64.35038757324219,0.00000286102294921875,0],"rotation":[-0.0002562598092481494,0.18868853151798248,0.0013337329728528857,0.9820360541343689],"children":[69]},{"name":"B_Hair_37_060","translation":[64.68014526367188,-0.0000553131103515625,-0.000030517578125],"rotation":[-0.002011913573369384,-0.245184063911438,-0.007954838685691357,0.969441831111908],"children":[70]},{"name":"B_Hair_38_061","translation":[86.14205932617188,-0.00006198883056640625,0.00000762939453125],"rotation":[-0.0034955241717398167,-0.19599251449108124,-0.017486173659563065,0.9804432392120361]},{"name":"B_Hair_19_062","translation":[22.780471801757812,3.7354507446289062,-19.418180465698242],"rotation":[-0.1383194625377655,0.0513833686709404,0.45341956615448,0.8789983987808228],"children":[72]},{"name":"B_Hair_20_063","translation":[36.784263610839844,-1.4210854715202004e-14,-0.000003814697265625],"rotation":[-0.004303520545363426,-0.08018384873867035,0.08032134175300598,0.9935293197631836],"children":[73]},{"name":"B_Hair_21_064","translation":[59.710235595703125,0.0000152587890625,-0.00000762939453125],"rotation":[-0.022744478657841682,0.19627200067043304,-0.17233918607234955,0.9650177359580994]},{"name":"B_Hair_16_065","translation":[25.60443878173828,2.6158218383789062,19.252275466918945],"rotation":[-0.0017495567444711924,-0.06883630901575089,0.48723527789115906,0.8705517053604126],"children":[75]},{"name":"B_Hair_17_066","translation":[37.21049499511719,-0.000030517578125,0.00000476837158203125],"rotation":[0.018585843965411186,0.0740559846162796,0.05310607701539993,0.9956656098365784],"children":[76]},{"name":"B_Hair_18_067","translation":[58.39744567871094,-0.0000152587890625,3.552713678800501e-15],"rotation":[0.03728747367858887,-0.1471988558769226,-0.22122648358345032,0.9633280634880066]},{"name":"B_Right_Wing_9_068","translation":[54.43699645996094,-11.417945861816406,12.150495529174805],"rotation":[0.7922480702400208,-0.4905688464641571,0.3566112816333771,0.06718362122774124]},{"name":"B_Left_Wing_9_069","translation":[51.954124450683594,-12.530235290527344,-8.987192153930664],"rotation":[0.035652045160532,0.317186176776886,-0.3885698616504669,0.8643699288368225]},{"name":"B_Left_Wing_0_070","translation":[31.970935821533203,23.212554931640625,-24.081768035888672],"rotation":[-0.43127045035362244,0.34705838561058044,0.6020070910453796,0.5754508972167969],"children":[80]},{"name":"B_Left_Wing_1_071","translation":[35.53070831298828,0.00005054473876953125,-1.4210854715202004e-14],"rotation":[-0.017557015642523766,-0.14875327050685883,-0.13950158655643463,0.9788276553153992],"children":[81,85]},{"name":"B_Left_Wing_2_072","translation":[68.163330078125,-0.0000362396240234375,-1.4210854715202004e-14],"rotation":[-0.02075834944844246,-0.1924801468849182,0.21404430270195007,0.9574474096298218],"children":[82]},{"name":"B_Left_Wing_6_073","translation":[76.69593811035156,18.228740692138672,-2.345489501953125],"rotation":[-0.003337877569720149,-0.06352952122688293,0.20940527319908142,0.9757573008537292],"children":[83]},{"name":"B_Left_Wing_7_074","translation":[108.33256530761719,-0.0000152587890625,-0.0000152587890625],"rotation":[-0.002843908965587616,-0.06902384757995605,-0.021591106429696083,0.9973773956298828],"children":[84]},{"name":"B_Left_Wing_8_075","translation":[109.16241455078125,-0.000030517578125,0.0000152587890625],"rotation":[-0.08391701430082321,-0.13751444220542908,-0.02183566614985466,0.9866970777511597]},{"name":"B_Left_Wing_3_076","translation":[3.7126922607421875,6.5926361083984375,0.6915054321289062],"rotation":[0.05327259376645088,0.002092313254252076,0.692238986492157,0.7196963429450989],"children":[86]},{"name":"B_Left_Wing_4_077","translation":[64.7105941772461,0,-0.00000762939453125],"rotation":[-0.01849531941115856,-0.1505509316921234,-0.00047125256969593465,0.9884291291236877],"children":[87]},{"name":"B_Left_Wing_5_078","translation":[59.859527587890625,-0.0000457763671875,0],"rotation":[-0.003313319990411401,-0.12267317622900009,-0.027218785136938095,0.9920682907104492]},{"name":"B_Right_Wing_0_079","translation":[31.970937728881836,23.212539672851562,23.776195526123047],"rotation":[0.5989612936973572,0.6071757674217224,0.35910165309906006,-0.37898412346839905],"children":[89]},{"name":"B_Right_Wing_1_080","translation":[35.530723571777344,-0.000060558319091796875,-0.0000152587890625],"rotation":[0.00022049268591217697,-0.18937115371227264,0.12388141453266144,0.974059522151947],"children":[90,93]},{"name":"B_Right_Wing_3_081","translation":[3.712677001953125,-6.592639923095703,0.6914825439453125],"rotation":[-0.11013596504926682,0.08349086344242096,-0.7165831327438354,0.6836723685264587],"children":[91]},{"name":"B_Right_Wing_4_082","translation":[64.71053314208984,0,-0.00000762939453125],"rotation":[0.002229450736194849,-0.03633158281445503,0.06120941787958145,0.9974610209465027],"children":[92]},{"name":"B_Right_Wing_5_083","translation":[59.85951232910156,0.0000457763671875,0.00006103515625],"rotation":[0.003333926433697343,-0.11392385512590408,0.029060864821076393,0.9930588603019714]},{"name":"B_Right_Wing_2_084","translation":[68.16329956054688,0.0000457763671875,-0.0000152587890625],"rotation":[-0.038574784994125366,-0.07233724743127823,-0.2653719186782837,0.9606544971466064],"children":[94]},{"name":"B_Right_Wing_6_085","translation":[76.69595336914062,-18.228775024414062,-2.3455047607421875],"rotation":[0.08039792627096176,0.0002646511420607567,-0.21070414781570435,0.9742380976676941],"children":[95]},{"name":"B_Right_Wing_7_086","translation":[108.33255004882812,0.000030517578125,-0.00002288818359375],"rotation":[0.06647312641143799,-0.07853500545024872,0.006891851779073477,0.9946688413619995],"children":[96]},{"name":"B_Right_Wing_8_087","translation":[109.162353515625,-0.0000152587890625,0.00005340576171875],"rotation":[0.10703474283218384,-0.14643089473247528,0.03447461128234863,0.9828087687492371]},{"name":"AMesh_Ride_FengHuang_01","rotation":[-0.7071068286895752,0,0,0.7071068286895752]}],"skins":[{"inverseBindMatrices":12,"skeleton":5,"joints":[5,9,10,11,12,13,14,15,16,17,18,19,20,21,22,23,24,25,26,27,28,29,30,31,32,33,34,35,36,37,38,39,40,41,42,43,44,45,46,47,48,49,50,51,52,53,54,55,56,57,58,59,60,61,62,63,64,65,66,67,68,69,70,71,72,73,74,75,76,77,78,79,80,81,82,83,84,85,86,87,88,89,90,91,92,93,94,95,96]}],"scenes":[{"name":"Sketchfab_Scene","nodes":[0]}],"scene":0}